<svg xmlns="http://www.w3.org/2000/svg" xmlns:xlink="http://www.w3.org/1999/xlink" width="160" height="160" viewBox="0 0 160 160"><defs><filter id="a" x="37.481" y="53.246" width="87.774" height="54.951" filterUnits="userSpaceOnUse"><feOffset input="SourceAlpha"/><feGaussianBlur stdDeviation="1" result="b"/><feFlood flood-opacity="0.161"/><feComposite operator="in" in2="b"/><feComposite in="SourceGraphic"/></filter><clipPath id="d"><rect width="160" height="160"/></clipPath></defs><g id="c" clip-path="url(#d)"><rect width="160" height="160" fill="rgba(255,255,255,0)"/><g fill="#272727" stroke="#ff652f" stroke-width="6"><rect width="160" height="160" rx="37" stroke="none"/><rect x="3" y="3" width="154" height="154" rx="34" fill="none"/></g><g transform="matrix(1, 0, 0, 1, 0, 0)" filter="url(#a)"><path d="M12.726-2.961V-5.418c0-4.158-.189-8.631-.189-12.537,0-.5.063-.693.378-.693a1.23,1.23,0,0,1,.441.063,20.128,20.128,0,0,0,4.6.5,35.758,35.758,0,0,0,4.536-.315A14.872,14.872,0,0,0,36.162-33.39c0-6.8-4.6-13.545-14.553-14.175-.945-.063-2.2-.126-3.528-.126C5.733-47.691,5.67-43.533,5.67-35.784c0,4.41.126,10.584.126,17.073,0,5.355-.063,10.9-.315,15.813v.189A3.35,3.35,0,0,0,9.072.5,3.412,3.412,0,0,0,12.726-2.961Zm8.253-38.052c5.67,0,8.127,3.528,8.127,7.308,0,4.032-2.9,8.379-7.686,8.82-1.323.126-2.646.189-3.843.189-3.906,0-5.166-.441-5.166-1.764v-1.071c0-2.2-.063-4.788-.063-6.993,0-5.859.567-6.552,5.607-6.552C19.467-41.076,20.979-41.013,20.979-41.013ZM76.986-17.766c1.134,0,2.079.567,2.079,1.764,0,1.827-2.835,9.891-13.23,9.891-10.773,0-16.191-8.631-16.191-17.01,0-8.064,5.355-17.7,16.38-17.7a13.278,13.278,0,0,1,10.395,4.473,4.036,4.036,0,0,0,3.213,1.7,3.956,3.956,0,0,0,3.843-3.906c0-3.4-6.8-9.2-16.821-9.2-15.372,0-24.381,12.159-24.381,24.948,0,14.553,10.9,24,23.562,24,14.994,0,21.42-11.781,21.42-18.963,0-3.906-2.016-6.678-7.434-6.678-2.079,0-5.607-.126-8.694-.126-2.079,0-4.788,0-4.788,3.339,0,1.827,1.134,3.654,3.15,3.654h.126c3.465-.126,6.615-.189,7.245-.189Z" transform="translate(35 104)" fill="#ff652f"/></g></g></svg>