<svg xmlns="http://www.w3.org/2000/svg" xmlns:xlink="http://www.w3.org/1999/xlink" width="2453.937" height="784.289" viewBox="0 0 2453.937 784.289" class="triangles"><defs><filter id="a" x="1637.14" y="123.999" width="640.686" height="637.848" filterUnits="userSpaceOnUse"><feOffset dy="3" input="SourceAlpha"/><feGaussianBlur stdDeviation="3" result="b"/><feFlood flood-opacity="0.161"/><feComposite operator="in" in2="b"/><feComposite in="SourceGraphic"/></filter><filter id="c" x="1059.144" y="117.567" width="644.583" height="647.842" filterUnits="userSpaceOnUse"><feOffset dy="3" input="SourceAlpha"/><feGaussianBlur stdDeviation="3" result="d"/><feFlood flood-opacity="0.161"/><feComposite operator="in" in2="d"/><feComposite in="SourceGraphic"/></filter><filter id="e" x="602.083" y="200.758" width="534.651" height="538.884" filterUnits="userSpaceOnUse"><feOffset dy="3" input="SourceAlpha"/><feGaussianBlur stdDeviation="3" result="f"/><feFlood flood-opacity="0.161"/><feComposite operator="in" in2="f"/><feComposite in="SourceGraphic"/></filter><filter id="g" x="0" y="78.011" width="446.638" height="448.63" filterUnits="userSpaceOnUse"><feOffset dy="3" input="SourceAlpha"/><feGaussianBlur stdDeviation="3" result="h"/><feFlood flood-opacity="0.161"/><feComposite operator="in" in2="h"/><feComposite in="SourceGraphic"/></filter><filter id="i" x="1955.013" y="170.795" width="452.05" height="453.931" filterUnits="userSpaceOnUse"><feOffset dy="3" input="SourceAlpha"/><feGaussianBlur stdDeviation="3" result="j"/><feFlood flood-opacity="0.161"/><feComposite operator="in" in2="j"/><feComposite in="SourceGraphic"/></filter><filter id="k" x="1338.124" y="171.198" width="582.513" height="582.08" filterUnits="userSpaceOnUse"><feOffset dy="3" input="SourceAlpha"/><feGaussianBlur stdDeviation="3" result="l"/><feFlood flood-opacity="0.161"/><feComposite operator="in" in2="l"/><feComposite in="SourceGraphic"/></filter><filter id="m" x="830.004" y="170.846" width="544.16" height="542.795" filterUnits="userSpaceOnUse"><feOffset dy="3" input="SourceAlpha"/><feGaussianBlur stdDeviation="3" result="n"/><feFlood flood-opacity="0.161"/><feComposite operator="in" in2="n"/><feComposite in="SourceGraphic"/></filter><filter id="o" x="192.602" y="99.356" width="685.876" height="684.933" filterUnits="userSpaceOnUse"><feOffset dy="3" input="SourceAlpha"/><feGaussianBlur stdDeviation="3" result="p"/><feFlood flood-opacity="0.161"/><feComposite operator="in" in2="p"/><feComposite in="SourceGraphic"/></filter></defs><g transform="translate(201.602 56.356)"><rect width="458.279" height="435.722" transform="translate(1821.693 -26.015) rotate(20)" fill="#22688d"/><rect width="458.279" height="435.722" transform="matrix(0.588, -0.809, 0.809, 0.588, 1188.563, 314.399)" fill="#22688d"/><rect width="339.279" height="329.722" transform="matrix(0.602, -0.799, 0.799, 0.602, 656.325, 260.077)" fill="#22688d"/><rect width="339.279" height="329.722" transform="translate(278.762 240.87) rotate(-31)" fill="#22688d"/><rect width="339.279" height="329.722" transform="matrix(0.695, -0.719, 0.719, 0.695, -18.352, 250.319)" fill="#22688d"/><g transform="matrix(1, 0, 0, 1, -201.6, -56.36)" filter="url(#a)"><rect width="451.857" height="440.3" transform="matrix(0.82, 0.57, -0.57, 0.82, 1898.69, 130)" fill="#1d8ac2"/></g><g transform="matrix(1, 0, 0, 1, -201.6, -56.36)" filter="url(#c)"><rect width="456.857" height="440.3" transform="matrix(0.6, 0.8, -0.8, 0.6, 1419.78, 123.57)" fill="#1d8ac2"/></g><g transform="matrix(1, 0, 0, 1, -201.6, -56.36)" filter="url(#e)"><rect width="381.857" height="357.3" transform="matrix(0.62, -0.79, 0.79, 0.62, 611.08, 507.67)" fill="#1d8ac2"/></g><g transform="matrix(1, 0, 0, 1, -201.6, -56.36)" filter="url(#g)"><rect width="311.857" height="300.3" transform="matrix(0.62, -0.79, 0.79, 0.62, 9, 329.76)" fill="#1d8ac2"/></g><g transform="matrix(1, 0, 0, 1, -201.6, -56.36)" filter="url(#i)"><rect width="315.386" height="305.829" transform="matrix(0.6, -0.8, 0.8, 0.6, 1964.01, 428.67)" fill="#4ca4d1"/></g><g transform="matrix(1, 0, 0, 1, -201.6, -56.36)" filter="url(#k)"><rect width="407.857" height="390.3" transform="matrix(0.72, 0.69, -0.69, 0.72, 1618.25, 177.2)" fill="#4ca4d1"/></g><g transform="matrix(1, 0, 0, 1, -201.6, -56.36)" filter="url(#m)"><rect width="362.857" height="381.3" transform="translate(1122.37 176.85) rotate(48)" fill="#4ca4d1"/></g><g transform="matrix(1, 0, 0, 1, -201.6, -56.36)" filter="url(#o)"><rect width="477.857" height="468.3" transform="translate(201.6 418.86) rotate(-41)" fill="#4ca4d1"/></g></g></svg>